<?xml version="1.0" encoding="UTF-8" standalone="no"?>
<!-- Created with Inkscape (http://www.inkscape.org/) -->

<svg
   width="100mm"
   height="112.50997mm"
   viewBox="0 0 100 112.50997"
   version="1.1"
   id="svg5"
   xml:space="preserve"
   sodipodi:docname="Bubble.svg"
   inkscape:version="1.2.2 (732a01da63, 2022-12-09)"
   xmlns:inkscape="http://www.inkscape.org/namespaces/inkscape"
   xmlns:sodipodi="http://sodipodi.sourceforge.net/DTD/sodipodi-0.dtd"
   xmlns="http://www.w3.org/2000/svg"
   xmlns:svg="http://www.w3.org/2000/svg"><sodipodi:namedview
     id="namedview7"
     pagecolor="#ffffff"
     bordercolor="#000000"
     borderopacity="0.25"
     inkscape:showpageshadow="2"
     inkscape:pageopacity="0.0"
     inkscape:pagecheckerboard="0"
     inkscape:deskcolor="#d1d1d1"
     inkscape:document-units="mm"
     showgrid="false"
     showguides="false"
     inkscape:zoom="0.55498784"
     inkscape:cx="189.19333"
     inkscape:cy="214.41911"
     inkscape:window-width="1920"
     inkscape:window-height="1114"
     inkscape:window-x="-9"
     inkscape:window-y="-9"
     inkscape:window-maximized="1"
     inkscape:current-layer="layer1" /><defs
     id="defs2" /><g
     inkscape:label="圖層 1"
     inkscape:groupmode="layer"
     id="layer1"><path
       id="path856"
       style="fill:#ffffff;stroke-width:0.244777"
       d="m 49.710423,0.00148395 c -0.528951,0.01146253 -0.913737,0.08737059 -1.005401,0.23569429 -0.08321,0.13462694 -0.468733,0.24477736 -0.856729,0.24477736 -0.387996,0 -0.77355,0.11015133 -0.85672,0.24477827 -0.08321,0.13462695 -0.328908,0.24477734 -0.545965,0.24477734 -0.217048,0 -0.568649,0.14459629 -0.781191,0.32127099 -0.212543,0.1766794 -0.881968,0.5316904 -1.487789,0.7888342 -0.605821,0.2571391 -1.156532,0.5411435 -1.223882,0.6310675 -0.06731,0.089961 -0.562997,0.4032415 -1.101504,0.6960866 -0.538508,0.2928404 -1.30956,0.7302586 -1.713441,0.9719386 -1.342485,0.8033672 -4.950602,2.8764186 -5.292841,3.0410758 -0.185436,0.089212 -0.777648,0.4368585 -1.316156,0.7725793 -0.538517,0.3357163 -1.584938,0.9246064 -2.325386,1.3085088 -0.740469,0.383907 -1.731812,0.933496 -2.203002,1.221498 -0.471203,0.288007 -1.021948,0.601698 -1.223888,0.697043 -0.400444,0.189058 -5.035301,2.868962 -5.629886,3.255256 -0.20194,0.131195 -0.807761,0.467943 -1.346278,0.748197 -0.538503,0.280245 -1.64001,0.882998 -2.447776,1.339585 -0.807757,0.456581 -1.909273,1.058802 -2.447776,1.338149 -0.538517,0.279357 -1.419719,0.783964 -1.958222,1.121101 -0.538503,0.337141 -1.309567,0.764431 -1.713443,0.949469 -0.403881,0.185038 -1.009711,0.546231 -1.346278,0.802699 -0.336563,0.256464 -0.9974718,0.656371 -1.4686661,0.888753 -0.4711897,0.232378 -1.2973247,0.696095 -1.8358325,1.030266 -0.5385124,0.334157 -1.2544822,0.742609 -1.5910542,0.907876 -1.156194,0.56771 -2.89536,2.187092 -3.5636192,3.318363 -0.2521063,0.426797 -0.5197079,0.775926 -0.5947325,0.775926 -0.2104425,0 -1.3280376,2.363077 -1.56284838,3.304499 C 0.20295992,31.470811 0.11433114,42.926496 0.0736248,56.658425 L 0,81.625747 0.70899515,82.849638 c 0.39003605,0.673135 0.82932395,1.33404 0.97624145,1.468666 0.1469221,0.134627 0.576707,0.659804 0.9552065,1.166524 0.6323914,0.846617 3.1017078,2.872313 3.5009907,2.872313 0.094013,0 0.5316293,0.275369 0.9728952,0.611936 0.4412659,0.336567 0.9074903,0.611946 1.0360021,0.611946 0.1285025,0 0.7736988,0.357984 1.4337658,0.795531 1.7234091,1.142395 2.0591411,1.344854 3.0162161,1.816705 0.47119,0.232304 0.91176,0.498049 0.97911,0.590905 0.06731,0.09286 0.507921,0.344515 0.979111,0.55888 0.471203,0.214365 1.074334,0.529395 1.34054,0.700389 3.009026,1.932792 5.420032,3.378885 6.737123,4.041223 0.471203,0.236948 0.91176,0.499643 0.979111,0.583738 0.06731,0.0841 0.553801,0.383176 1.08142,0.664531 0.527614,0.281364 1.023325,0.598004 1.1015,0.703735 0.07819,0.10575 0.913527,0.57771 1.855911,1.04891 0.942394,0.4712 1.768482,0.91176 1.835833,0.97911 0.196089,0.1961 1.033607,0.68711 1.958221,1.14787 0.774882,0.38614 2.879186,1.73134 3.182106,2.03425 0.06731,0.0674 0.507923,0.31455 0.979117,0.54931 0.831963,0.41452 1.162915,0.60911 2.446821,1.43759 0.33715,0.21756 1.383941,0.81166 2.326339,1.32046 0.942388,0.5088 1.852156,1.03384 2.021809,1.16652 0.421931,0.33 2.223722,1.33796 3.118522,1.74452 0.40388,0.1835 1.119859,0.50856 1.591053,0.72286 1.020156,0.46397 3.829957,0.41813 5.140331,-0.0841 1.655647,-0.63458 4.314168,-2.02158 4.650782,-2.42626 0.06731,-0.081 0.979931,-0.58786 2.028017,-1.12636 2.814241,-1.44598 3.650608,-1.90468 4.462894,-2.44778 1.119424,-0.74849 1.622851,-1.04818 2.688246,-1.60014 0.538508,-0.27898 1.529855,-0.82564 2.202999,-1.2148 0.673135,-0.38916 1.692033,-0.93626 2.264197,-1.21624 0.572174,-0.27998 1.040306,-0.61646 1.040306,-0.74772 0,-0.13127 0.121222,-0.23904 0.269162,-0.23904 0.385896,0 1.998153,-0.78108 2.379886,-1.153137 0.177905,-0.1734 0.43628,-0.31553 0.574172,-0.31553 0.137884,0 0.59632,-0.247836 1.019268,-0.550747 0.422939,-0.30292 1.156393,-0.741993 1.629308,-0.976249 0.472915,-0.234256 1.410345,-0.759811 2.08348,-1.167467 0.673088,-0.407655 1.416645,-0.807225 1.652242,-0.887805 0.235597,-0.08058 0.42836,-0.243461 0.42836,-0.362379 0,-0.118927 0.215041,-0.216576 0.477606,-0.216576 0.262565,0 0.565485,-0.137689 0.673144,-0.305973 0.107659,-0.168283 1.040296,-0.746572 2.07248,-1.28508 3.484711,-1.818053 3.792609,-1.988169 4.507828,-2.492233 0.392529,-0.276646 0.961604,-0.580047 1.264524,-0.674097 0.30291,-0.09405 0.550747,-0.273639 0.550747,-0.3992 0,-0.125551 0.131176,-0.22852 0.291633,-0.22852 0.571563,0 3.522637,-1.948621 4.726314,-3.120917 2.732375,-2.661149 3.424392,-4.157495 3.650627,-7.894077 0.07743,-1.278966 0.144535,-12.608047 0.149161,-25.175766 L 100,31.02949 99.116025,29.44943 c -1.076257,-1.924507 -3.267655,-4.21412 -4.898424,-5.117861 -0.664614,-0.368313 -1.263146,-0.735504 -1.330496,-0.816084 -0.06735,-0.08058 -0.507925,-0.340566 -0.97912,-0.577523 -1.474633,-0.741572 -3.056444,-1.713784 -3.141465,-1.930971 -0.04488,-0.114606 -0.180403,-0.208443 -0.301199,-0.208443 -0.188063,0 -1.477038,-0.742591 -3.294937,-1.898461 -0.265979,-0.169116 -0.868867,-0.499568 -1.340062,-0.734333 -0.471194,-0.234764 -0.938225,-0.551911 -1.037428,-0.70517 -0.09925,-0.153255 -0.456503,-0.348399 -0.794097,-0.433142 -0.337604,-0.08473 -1.478343,-0.702784 -2.534784,-1.373528 -1.056486,-0.670743 -2.048111,-1.219585 -2.203961,-1.219585 -0.15585,0 -0.283501,-0.08374 -0.283501,-0.186452 0,-0.186648 -0.109056,-0.25339 -1.873601,-1.146917 -0.517868,-0.262241 -0.99638,-0.548827 -1.063731,-0.636804 -0.06731,-0.08794 -0.579889,-0.423809 -1.138787,-0.746763 -3.607109,-2.0843587 -4.229009,-2.4233953 -4.449508,-2.4233953 -0.135191,0 -0.282613,-0.093367 -0.327482,-0.207965 C 68.038014,8.8678838 66.444703,7.8838656 64.982449,7.1464565 64.174696,6.7391064 62.067024,5.4068547 61.800333,5.1351677 61.733019,5.0666053 61.29242,4.8187046 60.821225,4.5839401 60.350022,4.3491663 59.748188,4.0187234 59.484032,3.8496071 56.883174,2.1845146 54.457318,0.93747794 52.86595,0.44805832 51.873677,0.1428885 50.591715,-0.01757772 49.710136,0.00153021 Z" /></g></svg>
